<svg xmlns="http://www.w3.org/2000/svg" width="838.48346mm" height="300mm" viewBox="0 0 838.48346 300"><path d="M0 0a6.131 6.131 0 0 0 12.033 0zm14.718-1.178a8.702 8.702 0 0 1-8.701 8.701c-4.794 0-8.702-3.908-8.702-8.701A8.702 8.702 0 0 1 10.96-8.339L9.486-6.232A6.132 6.132 0 0 0 .059-2.625h14.039c.292 0 .539.22.57.511.033.307.05.619.05.936" style="fill:#ee7158;fill-opacity:1;fill-rule:nonzero;stroke:none" transform="matrix(5.4155 0 0 -5.4155 183.358 93.833)"/><path d="M0 0a6.13 6.13 0 1 0-12.26 0A6.13 6.13 0 0 0 0 .002zm-6.13 8.703A8.702 8.702 0 1 1-.026-6.198a6.127 6.127 0 0 0-6.104-5.614 6.384 6.384 0 0 0-4.405 1.779v-3.152A8.7 8.7 0 0 1 2.571-5.684V.001A8.701 8.701 0 0 1-6.13 8.703" style="fill:#fbc47b;fill-opacity:1;fill-rule:nonzero;stroke:none" transform="matrix(5.4155 0 0 -5.4155 295.255 165.984)"/><path d="M0 0a6.13 6.13 0 1 0 0 12.26A6.13 6.13 0 0 0 0 0m8.128 21.933H6.703a.574.574 0 0 1-.573-.573v-9.055A8.702 8.702 0 1 1 8.701 6.13V21.36a.573.573 0 0 1-.573.573" style="fill:#ec6078;fill-opacity:1;fill-rule:nonzero;stroke:none" transform="matrix(5.4155 0 0 -5.4155 73.451 118.778)"/><path d="M0 0c-3.72.952-4.4 2.132-3.831 3.495.614 1.467 5.078 2.455 6.944-.862a.587.587 0 0 1 .745-.249l1.361.628a.573.573 0 0 1 .245.825c-.97 1.549-2.471 3.67-6.436 3.667-3.504-.002-6.297-2.348-6.039-5.288.198-2.253 1.762-3.778 6.268-4.863C3.548-3.68 3.56-5.342 3.231-6.098 2.942-6.76 1.985-8.019-.293-8.021c-1.951-.001-3.649.795-4.931 2.744a.57.57 0 0 1-.729.194l-1.593-.788a.57.57 0 0 1-.241-.803c.733-1.239 2.924-4.176 7.228-4.173 3.324.003 4.91 1.357 5.878 2.655.143.878.472 1.693.946 2.403C6.454-4.266 6.466-1.655 0 0" style="fill:#5c5ca6;fill-opacity:1;fill-rule:nonzero;stroke:none" transform="matrix(5.4155 0 0 -5.4155 42.602 150.703)"/><path d="M0 0h-.003v-.059a6.129 6.129 0 0 0-12.257.06A6.13 6.13 0 0 0 0 .001zm-6.13 8.702A8.702 8.702 0 1 1-.003-6.177v-1.712c0-.316.257-.573.573-.573h1.428c.317 0 .573.257.573.573v7.89A8.7 8.7 0 0 1-6.13 8.702" style="fill:#e42313;fill-opacity:1;fill-rule:nonzero;stroke:none" transform="matrix(5.4155 0 0 -5.4155 174.17 129.1)"/><path d="M0 0a7.183 7.183 0 0 1-14.366 0v-9.602c0-.316.257-.573.573-.573h1.428c.317 0 .573.257.573.573v9.601A4.61 4.61 0 0 0-2.574 0v-17.616c0-.317.256-.573.573-.573h1.428c.316 0 .573.256.573.573z" style="fill:#f39562;fill-opacity:1;fill-rule:nonzero;stroke:none" transform="matrix(5.4155 0 0 -5.4155 238.2 201.497)"/><path d="M0 0v-.059A6.129 6.129 0 0 0-12.257 0 6.13 6.13 0 0 0 .003 0zm-6.127 8.702a8.702 8.702 0 1 1 0-17.403A8.67 8.67 0 0 1 0-6.174v-1.715c0-.316.257-.573.573-.573h1.428c.317 0 .573.257.573.573V0a8.702 8.702 0 0 1-8.701 8.702" style="fill:#773e91;fill-opacity:1;fill-rule:nonzero;stroke:none" transform="matrix(5.4155 0 0 -5.4155 137.321 200.492)"/><path d="M0 0v-9.038h2.044c.448 0 .799.013 1.054.036.254.024.517.085.79.182.272.097.508.233.708.409.902.763 1.353 2.077 1.353 3.942 0 1.314-.198 2.298-.595 2.951-.396.655-.885 1.071-1.466 1.249C3.307-.09 2.604 0 1.78 0Zm-1.044 2.134h3.515c.914 0 1.698-.084 2.352-.254A4.332 4.332 0 0 0 6.604.926c1.386-1.187 2.08-2.991 2.08-5.413 0-.799-.071-1.53-.209-2.189a6.5 6.5 0 0 0-.645-1.785 5.56 5.56 0 0 0-1.117-1.422 4.634 4.634 0 0 0-1.172-.771 5.276 5.276 0 0 0-1.367-.409 10.373 10.373 0 0 0-1.649-.119H-.99c-.49 0-.86.075-1.108.223a1.028 1.028 0 0 0-.486.627c-.076.269-.113.619-.113 1.049V.481c0 .581.13 1.002.39 1.262.26.261.681.391 1.263.391" style="fill:#9d9c9c;fill-opacity:1;fill-rule:nonzero;stroke:none" transform="matrix(5.4155 0 0 -5.4155 368.816 125.489)"/><path d="M0 0h3.979L1.972 5.495Zm5.341-3.697-.636 1.672H-.708l-.636-1.708c-.248-.666-.46-1.117-.635-1.349-.176-.233-.463-.35-.864-.35-.339 0-.638.124-.899.372-.26.249-.39.531-.39.845 0 .182.03.369.091.564.06.193.16.462.299.807l3.406 8.648.35.894c.136.349.282.638.436.867.155.231.358.417.609.559.251.143.561.214.93.214.376 0 .69-.071.941-.214a1.8 1.8 0 0 0 .608-.549 3.89 3.89 0 0 0 .391-.722c.106-.257.241-.601.404-1.031L7.812-2.77c.272-.655.409-1.13.409-1.426 0-.31-.129-.593-.386-.85a1.272 1.272 0 0 0-.932-.386c-.212 0-.393.039-.545.114a1.122 1.122 0 0 0-.381.308c-.103.13-.213.33-.331.6-.119.269-.22.507-.305.713" style="fill:#9d9c9c;fill-opacity:1;fill-rule:nonzero;stroke:none" transform="matrix(5.4155 0 0 -5.4155 442.063 157.855)"/><path d="M0 0h-6.076v-3.27h5.594c.412 0 .719-.091.922-.277a.94.94 0 0 0 .305-.73c0-.303-.1-.55-.3-.741-.2-.191-.509-.286-.927-.286h-5.594v-3.788H.209c.424 0 .743-.098.958-.295.215-.197.322-.459.322-.786a.989.989 0 0 0-.322-.766c-.215-.198-.534-.296-.958-.296h-7.33c-.588 0-1.01.131-1.268.39-.256.261-.385.682-.385 1.263V.428c0 .386.057.703.172.949.116.245.295.424.541.535.245.112.558.168.94.168H0c.43 0 .749-.095.958-.286a.965.965 0 0 0 .314-.749c0-.315-.105-.567-.314-.759C.749.096.43 0 0 0" style="fill:#9d9c9c;fill-opacity:1;fill-rule:nonzero;stroke:none" transform="matrix(5.4155 0 0 -5.4155 542.81 125.198)"/><path d="M0 0a3.91 3.91 0 0 0-.622-2.171c-.415-.643-1.022-1.144-1.821-1.508-.799-.363-1.747-.545-2.843-.545-1.314 0-2.398.248-3.251.744a4.33 4.33 0 0 0-1.477 1.431c-.378.597-.567 1.177-.567 1.739 0 .328.113.608.341.841.226.233.515.35.867.35.284 0 .525-.091.722-.273.197-.181.365-.451.504-.808.169-.424.353-.779.549-1.063.198-.285.474-.519.831-.704.358-.184.827-.277 1.409-.277.798 0 1.448.186 1.948.558.499.374.749.837.749 1.395 0 .442-.135.801-.404 1.076-.27.276-.618.486-1.044.632-.427.144-.999.3-1.713.463-.956.223-1.757.486-2.403.785-.644.3-1.156.709-1.534 1.227-.379.517-.568 1.161-.568 1.93 0 .733.2 1.383.599 1.952.4.57.978 1.007 1.736 1.313.757.306 1.646.459 2.67.459.817 0 1.524-.102 2.121-.305.596-.202 1.091-.472 1.485-.807.393-.337.681-.69.862-1.059.182-.369.273-.73.273-1.081 0-.321-.113-.61-.341-.867a1.082 1.082 0 0 0-.849-.386c-.309 0-.544.077-.704.231-.16.155-.335.408-.522.758-.242.503-.533.896-.872 1.177-.339.281-.884.422-1.635.422-.696 0-1.258-.152-1.685-.458-.426-.306-.64-.674-.64-1.104 0-.266.072-.497.218-.69a1.84 1.84 0 0 1 .599-.5 4.06 4.06 0 0 1 .773-.327c.26-.078.69-.194 1.289-.345a20.35 20.35 0 0 0 2.039-.581 6.2 6.2 0 0 0 1.553-.772c.427-.303.76-.686 1-1.149C-.119 1.239 0 .672 0 0" style="fill:#9d9c9c;fill-opacity:1;fill-rule:nonzero;stroke:none" transform="matrix(5.4155 0 0 -5.4155 617.279 164.397)"/><path d="M0 0h3.978L1.972 5.495Zm5.341-3.697-.636 1.672H-.708l-.636-1.708c-.248-.666-.46-1.117-.635-1.349-.176-.233-.463-.35-.864-.35-.339 0-.639.124-.899.372-.26.249-.39.531-.39.845 0 .182.03.369.091.564.059.193.16.462.299.807l3.406 8.648.35.894c.136.349.282.638.436.867.154.231.358.417.609.559.25.143.561.214.93.214.376 0 .69-.071.941-.214a1.8 1.8 0 0 0 .608-.549 3.89 3.89 0 0 0 .391-.722c.106-.257.241-.601.404-1.031L7.811-2.77c.273-.655.41-1.13.41-1.426 0-.31-.129-.593-.386-.85a1.272 1.272 0 0 0-.932-.386c-.212 0-.393.039-.545.114a1.122 1.122 0 0 0-.381.308c-.103.13-.213.33-.331.6-.119.269-.22.507-.305.713" style="fill:#9d9c9c;fill-opacity:1;fill-rule:nonzero;stroke:none" transform="matrix(5.4155 0 0 -5.4155 644.874 157.855)"/><path d="m0 0 5.186-7.848V.073c0 .515.11.901.332 1.159.22.256.519.385.894.385.388 0 .693-.129.917-.385.225-.258.337-.644.337-1.159v-10.472c0-1.169-.485-1.753-1.454-1.753-.242 0-.46.034-.653.104-.195.07-.376.18-.545.331-.17.152-.328.328-.473.532-.145.203-.291.41-.436.621L-.954-2.807v-7.801c0-.509-.118-.894-.355-1.154a1.172 1.172 0 0 0-.908-.39c-.381 0-.687.131-.917.394-.23.264-.345.647-.345 1.15V-.336c0 .437.048.778.145 1.026.115.273.306.496.572.668.267.173.554.259.864.259.242 0 .449-.039.622-.118.173-.079.323-.184.454-.318.13-.133.263-.306.399-.518C-.286.451-.146.23 0 0" style="fill:#9d9c9c;fill-opacity:1;fill-rule:nonzero;stroke:none" transform="matrix(5.4155 0 0 -5.4155 717.137 121.459)"/><path d="M0 0v-2.553c0-.339-.033-.61-.1-.812a1.286 1.286 0 0 0-.368-.55 3.46 3.46 0 0 0-.685-.473c-.806-.435-1.58-.754-2.325-.953-.746-.2-1.557-.3-2.435-.3-1.023 0-1.956.158-2.798.472a5.88 5.88 0 0 0-2.152 1.372 6.052 6.052 0 0 0-1.367 2.18c-.318.853-.477 1.807-.477 2.861 0 1.035.154 1.983.463 2.843.31.859.764 1.59 1.363 2.189a5.982 5.982 0 0 0 2.189 1.376c.859.318 1.835.477 2.925.477.896 0 1.689-.12 2.379-.358.691-.24 1.25-.542 1.681-.905.43-.363.753-.748.972-1.153.218-.406.327-.767.327-1.081 0-.339-.126-.628-.377-.867a1.264 1.264 0 0 0-.904-.36 1.26 1.26 0 0 0-1.008.519c-.333.52-.616.914-.845 1.18-.23.266-.541.491-.932.672-.39.182-.888.273-1.494.273-.623 0-1.18-.108-1.671-.322a3.453 3.453 0 0 1-1.257-.936c-.349-.409-.616-.91-.8-1.503a6.61 6.61 0 0 1-.277-1.972c0-1.562.359-2.763 1.077-3.605.717-.842 1.717-1.263 3.001-1.263.624 0 1.21.082 1.758.245a8.82 8.82 0 0 1 1.666.7v2.162h-2.088c-.503 0-.883.075-1.14.226-.258.152-.387.409-.387.773 0 .297.108.542.323.735.215.194.507.291.876.291h3.062c.375 0 .693-.033.953-.1a1.08 1.08 0 0 0 .632-.445C-.08.805 0 .46 0 0" style="fill:#9d9c9c;fill-opacity:1;fill-rule:nonzero;stroke:none" transform="matrix(5.4155 0 0 -5.4155 838.483 156.723)"/></svg>